<?xml version="1.0" standalone="no"?>
<!DOCTYPE svg PUBLIC "-//W3C//DTD SVG 20010904//EN"
 "http://www.w3.org/TR/2001/REC-SVG-20010904/DTD/svg10.dtd">
<svg version="1.0" xmlns="http://www.w3.org/2000/svg"
 width="880.000000pt" height="1280.000000pt" viewBox="0 0 880.000000 1280.000000"
 preserveAspectRatio="xMidYMid meet">
<g transform="translate(0.000000,1280.000000) scale(0.100000,-0.100000)"
fill="#f44336" stroke="none">
<path d="M4285 12768 c-20 -65 -116 -98 -183 -64 -15 7 -37 17 -49 20 -39 12
-27 -20 14 -41 42 -20 83 -74 83 -109 0 -13 9 -32 20 -41 82 -73 111 -106 105
-121 -15 -38 -17 -75 -7 -110 24 -85 32 -156 19 -164 -11 -8 -75 -6 -107 3
-11 3 -26 -39 -65 -182 -58 -212 -29 -164 -277 -448 -125 -144 -167 -184 -340
-323 l-198 -159 -182 -66 c-101 -36 -280 -100 -398 -143 -118 -42 -234 -86
-256 -98 -41 -21 -78 -56 -174 -167 -28 -33 -58 -64 -66 -68 -19 -11 -18 -36
3 -59 13 -15 15 -23 7 -36 -13 -21 -60 -28 -80 -11 -15 13 -11 20 -77 -144
-20 -49 -50 -109 -66 -134 -17 -25 -33 -62 -37 -82 -11 -66 -35 -146 -55 -177
-20 -33 -25 -89 -10 -113 6 -9 0 -31 -18 -65 -20 -38 -40 -58 -75 -77 -76 -42
-90 -61 -96 -131 -4 -53 -8 -63 -26 -68 -12 -3 -34 -20 -49 -38 -25 -30 -32
-33 -64 -28 -20 4 -60 10 -89 14 -46 7 -59 14 -93 53 -22 24 -47 60 -55 79 -9
19 -31 52 -50 74 -26 30 -34 49 -34 78 0 21 -5 38 -11 38 -6 0 -24 9 -40 20
-26 19 -30 20 -58 5 -49 -25 -83 -19 -121 20 -19 19 -42 35 -52 35 -24 0 -70
24 -87 44 -20 24 -41 19 -78 -19 -36 -37 -101 -75 -129 -75 -25 0 -74 39 -74
59 0 10 7 24 16 32 14 11 44 61 44 73 0 2 -12 6 -27 8 -23 2 -29 9 -34 40 -3
20 -10 43 -16 50 -14 18 0 53 30 73 21 13 29 14 64 1 46 -16 51 -14 92 38 30
37 30 39 15 75 -28 66 -44 141 -44 211 0 55 -3 70 -15 72 -8 0 -20 1 -25 2 -6
1 -18 -15 -28 -34 -14 -30 -23 -36 -59 -40 -34 -4 -49 -13 -84 -53 -23 -27
-72 -69 -108 -93 -53 -35 -68 -51 -76 -81 -7 -26 -22 -45 -48 -63 -21 -14 -51
-46 -66 -71 -16 -24 -62 -75 -102 -113 -71 -66 -75 -71 -87 -135 -8 -36 -13
-89 -13 -117 1 -36 -4 -58 -18 -75 l-19 -24 99 -113 c105 -120 124 -162 74
-162 -21 0 -27 -7 -39 -47 -13 -45 -13 -49 7 -71 12 -13 35 -30 52 -38 43 -22
127 -125 147 -181 21 -60 23 -123 4 -168 -21 -49 -51 -60 -106 -41 -51 17 -57
15 -76 -30 -32 -77 -4 -122 110 -179 41 -20 92 -52 114 -71 22 -19 49 -34 60
-34 11 0 34 -12 52 -26 17 -14 88 -50 158 -79 232 -95 301 -144 355 -255 23
-47 41 -69 64 -80 17 -8 50 -32 72 -52 34 -30 41 -43 41 -74 0 -26 7 -46 24
-63 25 -27 56 -106 56 -144 0 -13 20 -50 45 -84 25 -33 48 -75 51 -93 4 -18
22 -55 40 -82 19 -28 34 -54 34 -59 0 -4 20 -22 44 -38 85 -59 196 -176 231
-244 20 -38 31 -74 28 -85 -4 -16 5 -27 35 -46 71 -44 99 -105 80 -173 -8 -30
-6 -39 26 -83 20 -28 36 -58 36 -68 0 -38 14 -64 41 -78 29 -14 39 -47 19 -59
-20 -12 -10 -26 10 -15 30 16 42 3 38 -42 -2 -31 1 -43 15 -49 9 -5 25 -13 34
-18 11 -5 21 -26 25 -52 21 -120 33 -154 75 -211 26 -34 43 -69 43 -86 0 -15
5 -45 11 -67 6 -22 16 -62 22 -90 7 -29 36 -86 70 -137 31 -48 57 -96 57 -107
0 -11 18 -41 40 -66 22 -25 40 -52 40 -60 0 -7 16 -33 36 -57 20 -23 43 -58
51 -75 7 -18 18 -33 23 -33 16 0 57 -98 75 -179 13 -59 14 -80 4 -102 -6 -16
-9 -35 -6 -43 3 -7 42 -33 87 -57 84 -45 160 -102 160 -121 0 -6 18 -37 40
-70 30 -46 38 -66 34 -87 -4 -18 2 -43 15 -69 12 -23 21 -54 21 -70 0 -15 11
-43 25 -62 14 -18 28 -49 31 -68 5 -27 20 -43 73 -82 71 -52 101 -92 101 -136
0 -17 14 -45 38 -73 21 -25 46 -67 56 -93 9 -25 28 -53 41 -62 16 -10 32 -42
51 -98 23 -70 35 -91 79 -133 43 -42 121 -162 148 -229 8 -21 -18 -183 -38
-233 -13 -30 -16 -32 -49 -26 -35 5 -36 5 -36 -25 0 -26 4 -31 28 -34 27 -3
27 -4 28 -78 2 -100 2 -100 17 -100 8 0 33 -14 55 -30 35 -25 42 -36 42 -63 0
-26 10 -43 50 -82 27 -27 50 -55 50 -61 0 -6 7 -25 15 -40 8 -16 15 -36 15
-44 0 -25 143 -136 235 -183 45 -23 115 -96 115 -120 0 -20 43 -67 62 -67 33
0 80 -39 76 -64 -2 -13 4 -25 17 -31 12 -7 20 -21 20 -37 0 -15 5 -31 10 -37
6 -5 71 -40 145 -77 74 -37 153 -79 175 -94 22 -15 61 -37 88 -48 26 -12 62
-37 80 -56 18 -19 46 -38 63 -41 16 -4 43 -13 59 -20 17 -7 54 -23 83 -36 28
-12 52 -26 52 -31 0 -25 146 -138 178 -138 11 0 31 -9 45 -20 14 -11 33 -20
44 -20 10 0 66 -16 125 -36 73 -24 109 -41 113 -53 6 -20 45 -41 76 -41 11 0
32 -8 47 -18 84 -57 110 -72 131 -72 12 0 36 -15 54 -33 28 -30 41 -35 114
-45 124 -17 263 -95 263 -146 0 -7 18 -20 40 -30 22 -10 52 -33 66 -52 19 -24
34 -34 54 -34 28 0 78 -34 113 -77 11 -14 50 -32 102 -48 46 -14 89 -32 95
-40 7 -8 21 -15 32 -15 26 0 84 -59 104 -106 9 -21 18 -68 20 -103 l3 -63 62
-38 c33 -21 77 -52 96 -69 19 -17 49 -38 67 -46 29 -14 60 -40 111 -95 39 -42
140 -114 180 -128 22 -7 57 -29 77 -49 27 -26 42 -34 58 -30 12 3 35 1 52 -5
22 -8 36 -8 49 0 10 6 47 16 83 22 98 16 110 23 161 100 l48 70 -6 72 c-5 53
-11 76 -28 94 -21 23 -21 23 -3 61 16 32 25 39 59 44 22 3 67 21 100 40 53 30
60 39 63 69 6 57 -7 96 -43 134 -39 42 -37 57 12 86 19 11 57 39 84 63 61 52
189 202 189 221 0 24 29 46 60 46 31 0 56 30 46 56 -3 7 3 39 14 71 19 58 65
113 95 113 26 0 16 24 -23 53 -31 24 -43 28 -75 23 -57 -9 -92 13 -115 76 -11
29 -45 117 -76 196 -31 79 -56 151 -56 160 0 9 19 59 42 109 37 84 45 94 77
104 71 23 79 46 27 77 -19 11 -47 40 -62 64 -15 24 -39 55 -52 69 -23 26 -23
29 -10 84 10 45 20 63 46 83 27 21 32 31 32 68 0 38 4 45 31 59 17 9 37 31 45
51 8 20 31 45 57 61 23 15 44 29 46 30 3 2 4 21 3 42 -3 43 9 58 53 63 29 3
30 5 28 48 -3 66 -11 88 -33 95 -31 10 -44 44 -43 116 1 63 -1 69 -33 100 -51
49 -46 60 31 71 17 3 21 14 27 83 8 77 2 322 -8 376 -7 37 93 165 136 174 27
6 43 25 21 25 -27 0 -16 33 23 72 l44 43 -287 515 c-157 283 -291 523 -296
532 -8 13 -33 20 -98 27 -48 6 -97 17 -109 26 -34 23 -57 18 -99 -20 -48 -43
-162 -80 -216 -70 -47 9 -91 30 -125 62 -25 24 -28 24 -49 9 -53 -37 -52 -50
-47 401 l4 416 32 27 c39 32 39 43 7 82 -32 38 -31 47 5 93 28 35 37 55 25 55
-24 0 -77 -34 -100 -64 -15 -20 -44 -46 -64 -58 -20 -12 -66 -50 -104 -85 -37
-34 -93 -76 -125 -92 -31 -16 -68 -41 -82 -56 -20 -21 -31 -25 -56 -20 -21 4
-35 1 -44 -10 -11 -13 -51 -15 -267 -15 -150 0 -262 4 -273 10 -16 8 -18 18
-13 65 6 53 5 56 -31 89 -21 20 -36 44 -36 58 -1 13 -7 34 -15 48 -8 14 -14
35 -15 47 0 32 -57 63 -114 63 -26 0 -63 7 -84 16 -51 22 -241 54 -318 54 -34
0 -65 4 -69 10 -5 8 31 65 90 136 19 24 25 43 25 81 0 51 -10 71 -67 136 -18
20 -41 56 -49 78 -13 31 -23 41 -45 46 -35 7 -79 55 -79 86 0 37 -35 81 -84
107 -38 20 -49 32 -58 65 -6 22 -18 48 -26 57 -8 10 -19 41 -23 69 -10 62 -30
94 -75 121 -43 25 -44 52 -4 67 17 5 30 17 30 25 0 17 -53 60 -86 70 -18 5
-96 88 -118 124 -4 7 0 24 10 40 10 15 21 47 24 72 4 36 9 45 25 46 11 1 33 6
48 13 16 6 38 11 49 11 19 0 20 4 14 42 -4 24 -16 53 -28 65 -15 16 -19 30
-15 50 22 109 26 118 65 153 64 56 123 103 177 140 28 19 69 52 92 72 24 21
53 38 66 38 41 0 57 29 57 104 0 37 -7 92 -15 121 -14 48 -14 57 0 90 8 21 15
56 15 80 0 38 6 48 60 103 33 34 60 67 60 73 0 6 7 26 16 45 16 33 15 37 -1
75 -17 37 -17 42 -2 75 9 19 17 44 17 56 0 11 9 36 21 55 13 20 19 42 15 56
-3 12 -1 28 3 36 13 21 100 51 146 51 34 0 44 5 68 35 15 19 34 35 42 35 8 0
22 11 31 25 9 14 23 25 30 25 8 0 14 9 14 19 0 25 43 56 98 70 48 13 105 47
142 85 14 14 35 26 45 26 11 0 26 9 32 19 18 29 106 55 163 47 50 -7 126 7
172 30 14 8 47 14 72 14 25 0 46 4 46 8 0 5 6 17 14 27 13 18 15 18 39 2 35
-23 197 -15 211 11 5 9 25 33 44 52 19 19 39 47 44 62 12 33 39 44 67 26 17
-10 23 -9 42 7 21 20 21 20 36 -2 18 -27 73 -32 93 -8 14 16 105 21 128 6 8
-4 13 -19 12 -32 -4 -40 -1 -44 35 -63 36 -19 36 -19 51 2 19 28 48 28 74 2
l21 -21 18 23 c10 12 16 28 14 35 -3 7 -34 36 -69 64 -73 58 -99 90 -109 137
-10 47 -32 54 -140 46 l-93 -7 -51 33 c-45 30 -49 35 -39 54 6 12 109 177 230
367 120 191 218 351 218 358 0 6 -7 11 -15 11 -25 0 -132 58 -138 75 -4 8 -15
15 -26 15 -11 0 -25 8 -30 19 -6 10 -26 21 -47 24 -20 4 -47 16 -60 28 -23 22
-24 22 -45 3 -23 -21 -21 -23 -71 49 -27 39 -156 111 -199 112 -28 0 -39 -4
-42 -17 -4 -13 -15 -18 -38 -18 -24 0 -39 -7 -54 -26 -17 -21 -36 -29 -93 -39
-77 -13 -83 -11 -96 33 -8 23 -21 29 -31 12 -11 -17 -25 -11 -37 16 -14 29
-75 64 -113 64 -14 0 -34 5 -44 11 -14 10 -24 7 -49 -11 -18 -13 -32 -30 -32
-37 0 -8 -11 -25 -25 -39 -19 -19 -33 -24 -69 -23 -36 2 -51 -4 -85 -30 -32
-25 -47 -32 -67 -27 -17 5 -38 -1 -64 -15 l-39 -22 -31 27 c-17 14 -41 26 -52
26 -11 0 -36 7 -54 16 -35 17 -35 16 -64 -11 -25 -24 -32 -26 -45 -15 -15 12
-83 10 -131 -5 -15 -5 -28 0 -45 17 -35 36 -75 58 -104 58 -18 0 -28 8 -36 28
-7 15 -16 37 -22 49 -8 19 -4 27 27 56 20 19 36 39 36 46 0 6 -16 31 -35 56
-19 25 -37 62 -40 83 -11 66 -11 65 -64 59 -42 -5 -52 -2 -82 22 -19 16 -43
30 -54 32 -11 2 -24 17 -29 32 -8 22 -6 33 12 57 31 41 28 58 -18 100 -30 28
-42 48 -48 79 -7 40 -10 43 -60 60 -29 10 -63 16 -76 14 -17 -4 -35 5 -64 31
-22 20 -48 36 -58 36 -11 0 -36 16 -57 35 -23 21 -48 35 -64 35 -19 0 -41 16
-78 57 -44 47 -51 60 -42 74 9 14 7 21 -10 36 -11 10 -30 50 -43 88 -30 94
-32 97 -82 130 -24 15 -55 36 -70 47 -15 10 -34 18 -43 18 -27 0 -75 42 -75
67 0 30 -33 48 -61 33 -32 -18 -59 -6 -120 53 -49 47 -108 87 -128 87 -4 0
-11 -15 -16 -32z"/>
</g>
</svg>
